G04 #@! TF.GenerationSoftware,KiCad,Pcbnew,7.0.1-0*
G04 #@! TF.CreationDate,2023-11-28T20:23:29+01:00*
G04 #@! TF.ProjectId,Smart_Lamps,536d6172-745f-44c6-916d-70732e6b6963,rev?*
G04 #@! TF.SameCoordinates,Original*
G04 #@! TF.FileFunction,Paste,Top*
G04 #@! TF.FilePolarity,Positive*
%FSLAX46Y46*%
G04 Gerber Fmt 4.6, Leading zero omitted, Abs format (unit mm)*
G04 Created by KiCad (PCBNEW 7.0.1-0) date 2023-11-28 20:23:29*
%MOMM*%
%LPD*%
G01*
G04 APERTURE LIST*
G04 Aperture macros list*
%AMRoundRect*
0 Rectangle with rounded corners*
0 $1 Rounding radius*
0 $2 $3 $4 $5 $6 $7 $8 $9 X,Y pos of 4 corners*
0 Add a 4 corners polygon primitive as box body*
4,1,4,$2,$3,$4,$5,$6,$7,$8,$9,$2,$3,0*
0 Add four circle primitives for the rounded corners*
1,1,$1+$1,$2,$3*
1,1,$1+$1,$4,$5*
1,1,$1+$1,$6,$7*
1,1,$1+$1,$8,$9*
0 Add four rect primitives between the rounded corners*
20,1,$1+$1,$2,$3,$4,$5,0*
20,1,$1+$1,$4,$5,$6,$7,0*
20,1,$1+$1,$6,$7,$8,$9,0*
20,1,$1+$1,$8,$9,$2,$3,0*%
G04 Aperture macros list end*
%ADD10O,0.280000X1.620000*%
%ADD11RoundRect,0.150000X0.675000X0.150000X-0.675000X0.150000X-0.675000X-0.150000X0.675000X-0.150000X0*%
%ADD12RoundRect,0.225000X-0.225000X-0.250000X0.225000X-0.250000X0.225000X0.250000X-0.225000X0.250000X0*%
%ADD13RoundRect,0.135000X-0.135000X-0.185000X0.135000X-0.185000X0.135000X0.185000X-0.135000X0.185000X0*%
%ADD14R,0.700000X1.250000*%
%ADD15R,1.800000X1.800000*%
%ADD16RoundRect,0.225000X0.225000X0.250000X-0.225000X0.250000X-0.225000X-0.250000X0.225000X-0.250000X0*%
%ADD17RoundRect,0.135000X0.185000X-0.135000X0.185000X0.135000X-0.185000X0.135000X-0.185000X-0.135000X0*%
%ADD18RoundRect,0.079500X0.100500X-0.079500X0.100500X0.079500X-0.100500X0.079500X-0.100500X-0.079500X0*%
%ADD19RoundRect,0.135000X0.135000X0.185000X-0.135000X0.185000X-0.135000X-0.185000X0.135000X-0.185000X0*%
%ADD20RoundRect,0.135000X-0.185000X0.135000X-0.185000X-0.135000X0.185000X-0.135000X0.185000X0.135000X0*%
%ADD21R,2.200000X1.200000*%
%ADD22RoundRect,0.381000X-0.762000X-0.381000X0.762000X-0.381000X0.762000X0.381000X-0.762000X0.381000X0*%
%ADD23R,0.250000X1.450000*%
%ADD24R,0.300000X1.450000*%
%ADD25R,1.500000X3.400000*%
%ADD26R,1.000000X3.500000*%
G04 APERTURE END LIST*
D10*
X132400000Y-102390000D03*
X131900000Y-102390000D03*
X131400000Y-102390000D03*
X130900000Y-102390000D03*
X130400000Y-102390000D03*
X130400000Y-106610000D03*
X130900000Y-106610000D03*
X131400000Y-106610000D03*
X131900000Y-106610000D03*
X132400000Y-106610000D03*
D11*
X142725000Y-115005000D03*
X142725000Y-113735000D03*
X142725000Y-112465000D03*
X142725000Y-111195000D03*
X137475000Y-111195000D03*
X137475000Y-112465000D03*
X137475000Y-113735000D03*
X137475000Y-115005000D03*
D12*
X130300000Y-113700000D03*
X131850000Y-113700000D03*
D13*
X145900000Y-108800000D03*
X146920000Y-108800000D03*
D14*
X137950000Y-116500000D03*
X136050000Y-116500000D03*
X137000000Y-118500000D03*
D15*
X145300000Y-126600000D03*
X145300000Y-118600000D03*
D16*
X141075000Y-116700000D03*
X139525000Y-116700000D03*
D17*
X129500000Y-107210000D03*
X129500000Y-106190000D03*
D18*
X130700000Y-108745000D03*
X130700000Y-108055000D03*
D19*
X145900000Y-104300000D03*
X144880000Y-104300000D03*
D20*
X135000000Y-119590000D03*
X135000000Y-120610000D03*
D21*
X134900000Y-113830000D03*
X134900000Y-111770000D03*
D19*
X134010000Y-118900000D03*
X132990000Y-118900000D03*
D22*
X134000000Y-115600000D03*
X134000000Y-117400000D03*
D16*
X142975000Y-109600000D03*
X141425000Y-109600000D03*
D15*
X131000000Y-118600000D03*
X131000000Y-126600000D03*
D12*
X130300000Y-112100000D03*
X131850000Y-112100000D03*
X145250000Y-107450000D03*
X146800000Y-107450000D03*
D19*
X135810000Y-110100000D03*
X134790000Y-110100000D03*
D23*
X141575000Y-107500000D03*
X140775000Y-107500000D03*
X139450000Y-107500000D03*
X138450000Y-107500000D03*
X137950000Y-107500000D03*
X136950000Y-107500000D03*
X135625000Y-107500000D03*
X134825000Y-107500000D03*
D24*
X135100000Y-107500000D03*
X135900000Y-107500000D03*
D23*
X136450000Y-107500000D03*
X137450000Y-107500000D03*
X138950000Y-107500000D03*
X139950000Y-107500000D03*
D24*
X140500000Y-107500000D03*
X141300000Y-107500000D03*
D12*
X130325000Y-115300000D03*
X131875000Y-115300000D03*
D25*
X142530000Y-125770000D03*
X133670000Y-125770000D03*
D26*
X136100000Y-120230000D03*
X138100000Y-120230000D03*
X140100000Y-120230000D03*
D12*
X130350000Y-116900000D03*
X131900000Y-116900000D03*
M02*
