G04 #@! TF.GenerationSoftware,KiCad,Pcbnew,7.0.1-0*
G04 #@! TF.CreationDate,2023-11-28T20:23:29+01:00*
G04 #@! TF.ProjectId,Smart_Lamps,536d6172-745f-44c6-916d-70732e6b6963,rev?*
G04 #@! TF.SameCoordinates,Original*
G04 #@! TF.FileFunction,Legend,Bot*
G04 #@! TF.FilePolarity,Positive*
%FSLAX46Y46*%
G04 Gerber Fmt 4.6, Leading zero omitted, Abs format (unit mm)*
G04 Created by KiCad (PCBNEW 7.0.1-0) date 2023-11-28 20:23:29*
%MOMM*%
%LPD*%
G01*
G04 APERTURE LIST*
G04 Aperture macros list*
%AMRoundRect*
0 Rectangle with rounded corners*
0 $1 Rounding radius*
0 $2 $3 $4 $5 $6 $7 $8 $9 X,Y pos of 4 corners*
0 Add a 4 corners polygon primitive as box body*
4,1,4,$2,$3,$4,$5,$6,$7,$8,$9,$2,$3,0*
0 Add four circle primitives for the rounded corners*
1,1,$1+$1,$2,$3*
1,1,$1+$1,$4,$5*
1,1,$1+$1,$6,$7*
1,1,$1+$1,$8,$9*
0 Add four rect primitives between the rounded corners*
20,1,$1+$1,$2,$3,$4,$5,0*
20,1,$1+$1,$4,$5,$6,$7,0*
20,1,$1+$1,$6,$7,$8,$9,0*
20,1,$1+$1,$8,$9,$2,$3,0*%
G04 Aperture macros list end*
%ADD10C,0.152400*%
%ADD11C,0.200000*%
%ADD12C,3.600000*%
%ADD13C,0.670000*%
%ADD14RoundRect,0.500000X0.000000X0.600000X0.000000X0.600000X0.000000X-0.600000X0.000000X-0.600000X0*%
%ADD15RoundRect,0.500000X0.000000X0.300000X0.000000X0.300000X0.000000X-0.300000X0.000000X-0.300000X0*%
%ADD16RoundRect,0.102000X1.000000X0.600000X-1.000000X0.600000X-1.000000X-0.600000X1.000000X-0.600000X0*%
%ADD17RoundRect,0.102000X0.600000X-1.000000X0.600000X1.000000X-0.600000X1.000000X-0.600000X-1.000000X0*%
G04 APERTURE END LIST*
D10*
X136500320Y-108343523D02*
X135687520Y-108343523D01*
X135687520Y-108343523D02*
X136268092Y-108614457D01*
X136268092Y-108614457D02*
X135687520Y-108885390D01*
X135687520Y-108885390D02*
X136500320Y-108885390D01*
X136500320Y-109620780D02*
X136074568Y-109620780D01*
X136074568Y-109620780D02*
X135997158Y-109582075D01*
X135997158Y-109582075D02*
X135958454Y-109504666D01*
X135958454Y-109504666D02*
X135958454Y-109349847D01*
X135958454Y-109349847D02*
X135997158Y-109272437D01*
X136461616Y-109620780D02*
X136500320Y-109543371D01*
X136500320Y-109543371D02*
X136500320Y-109349847D01*
X136500320Y-109349847D02*
X136461616Y-109272437D01*
X136461616Y-109272437D02*
X136384206Y-109233733D01*
X136384206Y-109233733D02*
X136306796Y-109233733D01*
X136306796Y-109233733D02*
X136229387Y-109272437D01*
X136229387Y-109272437D02*
X136190682Y-109349847D01*
X136190682Y-109349847D02*
X136190682Y-109543371D01*
X136190682Y-109543371D02*
X136151977Y-109620780D01*
X136500320Y-110356170D02*
X135687520Y-110356170D01*
X136461616Y-110356170D02*
X136500320Y-110278761D01*
X136500320Y-110278761D02*
X136500320Y-110123942D01*
X136500320Y-110123942D02*
X136461616Y-110046532D01*
X136461616Y-110046532D02*
X136422911Y-110007827D01*
X136422911Y-110007827D02*
X136345501Y-109969123D01*
X136345501Y-109969123D02*
X136113273Y-109969123D01*
X136113273Y-109969123D02*
X136035863Y-110007827D01*
X136035863Y-110007827D02*
X135997158Y-110046532D01*
X135997158Y-110046532D02*
X135958454Y-110123942D01*
X135958454Y-110123942D02*
X135958454Y-110278761D01*
X135958454Y-110278761D02*
X135997158Y-110356170D01*
X136461616Y-111052855D02*
X136500320Y-110975446D01*
X136500320Y-110975446D02*
X136500320Y-110820627D01*
X136500320Y-110820627D02*
X136461616Y-110743217D01*
X136461616Y-110743217D02*
X136384206Y-110704513D01*
X136384206Y-110704513D02*
X136074568Y-110704513D01*
X136074568Y-110704513D02*
X135997158Y-110743217D01*
X135997158Y-110743217D02*
X135958454Y-110820627D01*
X135958454Y-110820627D02*
X135958454Y-110975446D01*
X135958454Y-110975446D02*
X135997158Y-111052855D01*
X135997158Y-111052855D02*
X136074568Y-111091560D01*
X136074568Y-111091560D02*
X136151977Y-111091560D01*
X136151977Y-111091560D02*
X136229387Y-110704513D01*
X136500320Y-112059179D02*
X135687520Y-112059179D01*
X135997158Y-112059179D02*
X135958454Y-112136589D01*
X135958454Y-112136589D02*
X135958454Y-112291408D01*
X135958454Y-112291408D02*
X135997158Y-112368817D01*
X135997158Y-112368817D02*
X136035863Y-112407522D01*
X136035863Y-112407522D02*
X136113273Y-112446227D01*
X136113273Y-112446227D02*
X136345501Y-112446227D01*
X136345501Y-112446227D02*
X136422911Y-112407522D01*
X136422911Y-112407522D02*
X136461616Y-112368817D01*
X136461616Y-112368817D02*
X136500320Y-112291408D01*
X136500320Y-112291408D02*
X136500320Y-112136589D01*
X136500320Y-112136589D02*
X136461616Y-112059179D01*
X135958454Y-112717160D02*
X136500320Y-112910684D01*
X135958454Y-113104207D02*
X136500320Y-112910684D01*
X136500320Y-112910684D02*
X136693844Y-112833274D01*
X136693844Y-112833274D02*
X136732549Y-112794569D01*
X136732549Y-112794569D02*
X136771254Y-112717160D01*
X135726225Y-114458874D02*
X135687520Y-114381464D01*
X135687520Y-114381464D02*
X135687520Y-114265350D01*
X135687520Y-114265350D02*
X135726225Y-114149236D01*
X135726225Y-114149236D02*
X135803635Y-114071826D01*
X135803635Y-114071826D02*
X135881044Y-114033121D01*
X135881044Y-114033121D02*
X136035863Y-113994417D01*
X136035863Y-113994417D02*
X136151977Y-113994417D01*
X136151977Y-113994417D02*
X136306796Y-114033121D01*
X136306796Y-114033121D02*
X136384206Y-114071826D01*
X136384206Y-114071826D02*
X136461616Y-114149236D01*
X136461616Y-114149236D02*
X136500320Y-114265350D01*
X136500320Y-114265350D02*
X136500320Y-114342759D01*
X136500320Y-114342759D02*
X136461616Y-114458874D01*
X136461616Y-114458874D02*
X136422911Y-114497578D01*
X136422911Y-114497578D02*
X136151977Y-114497578D01*
X136151977Y-114497578D02*
X136151977Y-114342759D01*
X136500320Y-114845921D02*
X135958454Y-114845921D01*
X136113273Y-114845921D02*
X136035863Y-114884626D01*
X136035863Y-114884626D02*
X135997158Y-114923331D01*
X135997158Y-114923331D02*
X135958454Y-115000740D01*
X135958454Y-115000740D02*
X135958454Y-115078150D01*
X135958454Y-115271674D02*
X135958454Y-115697426D01*
X135958454Y-115697426D02*
X136500320Y-115271674D01*
X136500320Y-115271674D02*
X136500320Y-115697426D01*
X136461616Y-116316702D02*
X136500320Y-116239293D01*
X136500320Y-116239293D02*
X136500320Y-116084474D01*
X136500320Y-116084474D02*
X136461616Y-116007064D01*
X136461616Y-116007064D02*
X136384206Y-115968360D01*
X136384206Y-115968360D02*
X136074568Y-115968360D01*
X136074568Y-115968360D02*
X135997158Y-116007064D01*
X135997158Y-116007064D02*
X135958454Y-116084474D01*
X135958454Y-116084474D02*
X135958454Y-116239293D01*
X135958454Y-116239293D02*
X135997158Y-116316702D01*
X135997158Y-116316702D02*
X136074568Y-116355407D01*
X136074568Y-116355407D02*
X136151977Y-116355407D01*
X136151977Y-116355407D02*
X136229387Y-115968360D01*
X135958454Y-117052093D02*
X136616435Y-117052093D01*
X136616435Y-117052093D02*
X136693844Y-117013388D01*
X136693844Y-117013388D02*
X136732549Y-116974684D01*
X136732549Y-116974684D02*
X136771254Y-116897274D01*
X136771254Y-116897274D02*
X136771254Y-116781160D01*
X136771254Y-116781160D02*
X136732549Y-116703750D01*
X136461616Y-117052093D02*
X136500320Y-116974684D01*
X136500320Y-116974684D02*
X136500320Y-116819865D01*
X136500320Y-116819865D02*
X136461616Y-116742455D01*
X136461616Y-116742455D02*
X136422911Y-116703750D01*
X136422911Y-116703750D02*
X136345501Y-116665046D01*
X136345501Y-116665046D02*
X136113273Y-116665046D01*
X136113273Y-116665046D02*
X136035863Y-116703750D01*
X136035863Y-116703750D02*
X135997158Y-116742455D01*
X135997158Y-116742455D02*
X135958454Y-116819865D01*
X135958454Y-116819865D02*
X135958454Y-116974684D01*
X135958454Y-116974684D02*
X135997158Y-117052093D01*
X136500320Y-117555255D02*
X136461616Y-117477845D01*
X136461616Y-117477845D02*
X136422911Y-117439140D01*
X136422911Y-117439140D02*
X136345501Y-117400436D01*
X136345501Y-117400436D02*
X136113273Y-117400436D01*
X136113273Y-117400436D02*
X136035863Y-117439140D01*
X136035863Y-117439140D02*
X135997158Y-117477845D01*
X135997158Y-117477845D02*
X135958454Y-117555255D01*
X135958454Y-117555255D02*
X135958454Y-117671369D01*
X135958454Y-117671369D02*
X135997158Y-117748778D01*
X135997158Y-117748778D02*
X136035863Y-117787483D01*
X136035863Y-117787483D02*
X136113273Y-117826188D01*
X136113273Y-117826188D02*
X136345501Y-117826188D01*
X136345501Y-117826188D02*
X136422911Y-117787483D01*
X136422911Y-117787483D02*
X136461616Y-117748778D01*
X136461616Y-117748778D02*
X136500320Y-117671369D01*
X136500320Y-117671369D02*
X136500320Y-117555255D01*
X136500320Y-118174530D02*
X135958454Y-118174530D01*
X136113273Y-118174530D02*
X136035863Y-118213235D01*
X136035863Y-118213235D02*
X135997158Y-118251940D01*
X135997158Y-118251940D02*
X135958454Y-118329349D01*
X135958454Y-118329349D02*
X135958454Y-118406759D01*
X135958454Y-118600283D02*
X135958454Y-119026035D01*
X135958454Y-119026035D02*
X136500320Y-118600283D01*
X136500320Y-118600283D02*
X136500320Y-119026035D01*
X136500320Y-119954949D02*
X135687520Y-119954949D01*
X135687520Y-119954949D02*
X135687520Y-120264587D01*
X135687520Y-120264587D02*
X135726225Y-120341997D01*
X135726225Y-120341997D02*
X135764930Y-120380702D01*
X135764930Y-120380702D02*
X135842339Y-120419406D01*
X135842339Y-120419406D02*
X135958454Y-120419406D01*
X135958454Y-120419406D02*
X136035863Y-120380702D01*
X136035863Y-120380702D02*
X136074568Y-120341997D01*
X136074568Y-120341997D02*
X136113273Y-120264587D01*
X136113273Y-120264587D02*
X136113273Y-119954949D01*
X136500320Y-120767749D02*
X135958454Y-120767749D01*
X135687520Y-120767749D02*
X135726225Y-120729045D01*
X135726225Y-120729045D02*
X135764930Y-120767749D01*
X135764930Y-120767749D02*
X135726225Y-120806454D01*
X135726225Y-120806454D02*
X135687520Y-120767749D01*
X135687520Y-120767749D02*
X135764930Y-120767749D01*
X136461616Y-121464435D02*
X136500320Y-121387026D01*
X136500320Y-121387026D02*
X136500320Y-121232207D01*
X136500320Y-121232207D02*
X136461616Y-121154797D01*
X136461616Y-121154797D02*
X136384206Y-121116093D01*
X136384206Y-121116093D02*
X136074568Y-121116093D01*
X136074568Y-121116093D02*
X135997158Y-121154797D01*
X135997158Y-121154797D02*
X135958454Y-121232207D01*
X135958454Y-121232207D02*
X135958454Y-121387026D01*
X135958454Y-121387026D02*
X135997158Y-121464435D01*
X135997158Y-121464435D02*
X136074568Y-121503140D01*
X136074568Y-121503140D02*
X136151977Y-121503140D01*
X136151977Y-121503140D02*
X136229387Y-121116093D01*
X135958454Y-121735369D02*
X135958454Y-122045007D01*
X135687520Y-121851483D02*
X136384206Y-121851483D01*
X136384206Y-121851483D02*
X136461616Y-121890188D01*
X136461616Y-121890188D02*
X136500320Y-121967598D01*
X136500320Y-121967598D02*
X136500320Y-122045007D01*
X136500320Y-122315940D02*
X135958454Y-122315940D01*
X136113273Y-122315940D02*
X136035863Y-122354645D01*
X136035863Y-122354645D02*
X135997158Y-122393350D01*
X135997158Y-122393350D02*
X135958454Y-122470759D01*
X135958454Y-122470759D02*
X135958454Y-122548169D01*
X135958454Y-122741693D02*
X135958454Y-123167445D01*
X135958454Y-123167445D02*
X136500320Y-122741693D01*
X136500320Y-122741693D02*
X136500320Y-123167445D01*
X136500320Y-123825426D02*
X136074568Y-123825426D01*
X136074568Y-123825426D02*
X135997158Y-123786721D01*
X135997158Y-123786721D02*
X135958454Y-123709312D01*
X135958454Y-123709312D02*
X135958454Y-123554493D01*
X135958454Y-123554493D02*
X135997158Y-123477083D01*
X136461616Y-123825426D02*
X136500320Y-123748017D01*
X136500320Y-123748017D02*
X136500320Y-123554493D01*
X136500320Y-123554493D02*
X136461616Y-123477083D01*
X136461616Y-123477083D02*
X136384206Y-123438379D01*
X136384206Y-123438379D02*
X136306796Y-123438379D01*
X136306796Y-123438379D02*
X136229387Y-123477083D01*
X136229387Y-123477083D02*
X136190682Y-123554493D01*
X136190682Y-123554493D02*
X136190682Y-123748017D01*
X136190682Y-123748017D02*
X136151977Y-123825426D01*
X136500320Y-124212473D02*
X135687520Y-124212473D01*
X136190682Y-124289883D02*
X136500320Y-124522111D01*
X135958454Y-124522111D02*
X136268092Y-124212473D01*
X137275190Y-108227409D02*
X137275190Y-108537047D01*
X137817056Y-108343523D02*
X137120371Y-108343523D01*
X137120371Y-108343523D02*
X137042961Y-108382228D01*
X137042961Y-108382228D02*
X137004256Y-108459638D01*
X137004256Y-108459638D02*
X137004256Y-108537047D01*
X137817056Y-108924095D02*
X137778352Y-108846685D01*
X137778352Y-108846685D02*
X137739647Y-108807980D01*
X137739647Y-108807980D02*
X137662237Y-108769276D01*
X137662237Y-108769276D02*
X137430009Y-108769276D01*
X137430009Y-108769276D02*
X137352599Y-108807980D01*
X137352599Y-108807980D02*
X137313894Y-108846685D01*
X137313894Y-108846685D02*
X137275190Y-108924095D01*
X137275190Y-108924095D02*
X137275190Y-109040209D01*
X137275190Y-109040209D02*
X137313894Y-109117618D01*
X137313894Y-109117618D02*
X137352599Y-109156323D01*
X137352599Y-109156323D02*
X137430009Y-109195028D01*
X137430009Y-109195028D02*
X137662237Y-109195028D01*
X137662237Y-109195028D02*
X137739647Y-109156323D01*
X137739647Y-109156323D02*
X137778352Y-109117618D01*
X137778352Y-109117618D02*
X137817056Y-109040209D01*
X137817056Y-109040209D02*
X137817056Y-108924095D01*
X137817056Y-109543370D02*
X137275190Y-109543370D01*
X137430009Y-109543370D02*
X137352599Y-109582075D01*
X137352599Y-109582075D02*
X137313894Y-109620780D01*
X137313894Y-109620780D02*
X137275190Y-109698189D01*
X137275190Y-109698189D02*
X137275190Y-109775599D01*
X137004256Y-110588399D02*
X137004256Y-111091561D01*
X137004256Y-111091561D02*
X137313894Y-110820627D01*
X137313894Y-110820627D02*
X137313894Y-110936742D01*
X137313894Y-110936742D02*
X137352599Y-111014151D01*
X137352599Y-111014151D02*
X137391304Y-111052856D01*
X137391304Y-111052856D02*
X137468713Y-111091561D01*
X137468713Y-111091561D02*
X137662237Y-111091561D01*
X137662237Y-111091561D02*
X137739647Y-111052856D01*
X137739647Y-111052856D02*
X137778352Y-111014151D01*
X137778352Y-111014151D02*
X137817056Y-110936742D01*
X137817056Y-110936742D02*
X137817056Y-110704513D01*
X137817056Y-110704513D02*
X137778352Y-110627104D01*
X137778352Y-110627104D02*
X137739647Y-110588399D01*
X137817056Y-111788246D02*
X137004256Y-111788246D01*
X137778352Y-111788246D02*
X137817056Y-111710837D01*
X137817056Y-111710837D02*
X137817056Y-111556018D01*
X137817056Y-111556018D02*
X137778352Y-111478608D01*
X137778352Y-111478608D02*
X137739647Y-111439903D01*
X137739647Y-111439903D02*
X137662237Y-111401199D01*
X137662237Y-111401199D02*
X137430009Y-111401199D01*
X137430009Y-111401199D02*
X137352599Y-111439903D01*
X137352599Y-111439903D02*
X137313894Y-111478608D01*
X137313894Y-111478608D02*
X137275190Y-111556018D01*
X137275190Y-111556018D02*
X137275190Y-111710837D01*
X137275190Y-111710837D02*
X137313894Y-111788246D01*
X137275190Y-112175293D02*
X138087990Y-112175293D01*
X137313894Y-112175293D02*
X137275190Y-112252703D01*
X137275190Y-112252703D02*
X137275190Y-112407522D01*
X137275190Y-112407522D02*
X137313894Y-112484931D01*
X137313894Y-112484931D02*
X137352599Y-112523636D01*
X137352599Y-112523636D02*
X137430009Y-112562341D01*
X137430009Y-112562341D02*
X137662237Y-112562341D01*
X137662237Y-112562341D02*
X137739647Y-112523636D01*
X137739647Y-112523636D02*
X137778352Y-112484931D01*
X137778352Y-112484931D02*
X137817056Y-112407522D01*
X137817056Y-112407522D02*
X137817056Y-112252703D01*
X137817056Y-112252703D02*
X137778352Y-112175293D01*
X137817056Y-112910683D02*
X137275190Y-112910683D01*
X137430009Y-112910683D02*
X137352599Y-112949388D01*
X137352599Y-112949388D02*
X137313894Y-112988093D01*
X137313894Y-112988093D02*
X137275190Y-113065502D01*
X137275190Y-113065502D02*
X137275190Y-113142912D01*
X137817056Y-113413845D02*
X137275190Y-113413845D01*
X137004256Y-113413845D02*
X137042961Y-113375141D01*
X137042961Y-113375141D02*
X137081666Y-113413845D01*
X137081666Y-113413845D02*
X137042961Y-113452550D01*
X137042961Y-113452550D02*
X137004256Y-113413845D01*
X137004256Y-113413845D02*
X137081666Y-113413845D01*
X137275190Y-113800893D02*
X137817056Y-113800893D01*
X137352599Y-113800893D02*
X137313894Y-113839598D01*
X137313894Y-113839598D02*
X137275190Y-113917008D01*
X137275190Y-113917008D02*
X137275190Y-114033122D01*
X137275190Y-114033122D02*
X137313894Y-114110531D01*
X137313894Y-114110531D02*
X137391304Y-114149236D01*
X137391304Y-114149236D02*
X137817056Y-114149236D01*
X137275190Y-114420169D02*
X137275190Y-114729807D01*
X137004256Y-114536283D02*
X137700942Y-114536283D01*
X137700942Y-114536283D02*
X137778352Y-114574988D01*
X137778352Y-114574988D02*
X137817056Y-114652398D01*
X137817056Y-114652398D02*
X137817056Y-114729807D01*
X137275190Y-114923331D02*
X137817056Y-115078150D01*
X137817056Y-115078150D02*
X137430009Y-115232969D01*
X137430009Y-115232969D02*
X137817056Y-115387788D01*
X137817056Y-115387788D02*
X137275190Y-115542607D01*
X137817056Y-115968360D02*
X137778352Y-115890950D01*
X137778352Y-115890950D02*
X137739647Y-115852245D01*
X137739647Y-115852245D02*
X137662237Y-115813541D01*
X137662237Y-115813541D02*
X137430009Y-115813541D01*
X137430009Y-115813541D02*
X137352599Y-115852245D01*
X137352599Y-115852245D02*
X137313894Y-115890950D01*
X137313894Y-115890950D02*
X137275190Y-115968360D01*
X137275190Y-115968360D02*
X137275190Y-116084474D01*
X137275190Y-116084474D02*
X137313894Y-116161883D01*
X137313894Y-116161883D02*
X137352599Y-116200588D01*
X137352599Y-116200588D02*
X137430009Y-116239293D01*
X137430009Y-116239293D02*
X137662237Y-116239293D01*
X137662237Y-116239293D02*
X137739647Y-116200588D01*
X137739647Y-116200588D02*
X137778352Y-116161883D01*
X137778352Y-116161883D02*
X137817056Y-116084474D01*
X137817056Y-116084474D02*
X137817056Y-115968360D01*
X137275190Y-116587635D02*
X137817056Y-116587635D01*
X137352599Y-116587635D02*
X137313894Y-116626340D01*
X137313894Y-116626340D02*
X137275190Y-116703750D01*
X137275190Y-116703750D02*
X137275190Y-116819864D01*
X137275190Y-116819864D02*
X137313894Y-116897273D01*
X137313894Y-116897273D02*
X137391304Y-116935978D01*
X137391304Y-116935978D02*
X137817056Y-116935978D01*
X137817056Y-117671368D02*
X137004256Y-117671368D01*
X137778352Y-117671368D02*
X137817056Y-117593959D01*
X137817056Y-117593959D02*
X137817056Y-117439140D01*
X137817056Y-117439140D02*
X137778352Y-117361730D01*
X137778352Y-117361730D02*
X137739647Y-117323025D01*
X137739647Y-117323025D02*
X137662237Y-117284321D01*
X137662237Y-117284321D02*
X137430009Y-117284321D01*
X137430009Y-117284321D02*
X137352599Y-117323025D01*
X137352599Y-117323025D02*
X137313894Y-117361730D01*
X137313894Y-117361730D02*
X137275190Y-117439140D01*
X137275190Y-117439140D02*
X137275190Y-117593959D01*
X137275190Y-117593959D02*
X137313894Y-117671368D01*
X137778352Y-118368053D02*
X137817056Y-118290644D01*
X137817056Y-118290644D02*
X137817056Y-118135825D01*
X137817056Y-118135825D02*
X137778352Y-118058415D01*
X137778352Y-118058415D02*
X137700942Y-118019711D01*
X137700942Y-118019711D02*
X137391304Y-118019711D01*
X137391304Y-118019711D02*
X137313894Y-118058415D01*
X137313894Y-118058415D02*
X137275190Y-118135825D01*
X137275190Y-118135825D02*
X137275190Y-118290644D01*
X137275190Y-118290644D02*
X137313894Y-118368053D01*
X137313894Y-118368053D02*
X137391304Y-118406758D01*
X137391304Y-118406758D02*
X137468713Y-118406758D01*
X137468713Y-118406758D02*
X137546123Y-118019711D01*
X137817056Y-118755101D02*
X137275190Y-118755101D01*
X137430009Y-118755101D02*
X137352599Y-118793806D01*
X137352599Y-118793806D02*
X137313894Y-118832511D01*
X137313894Y-118832511D02*
X137275190Y-118909920D01*
X137275190Y-118909920D02*
X137275190Y-118987330D01*
X137778352Y-119219559D02*
X137817056Y-119296968D01*
X137817056Y-119296968D02*
X137817056Y-119451787D01*
X137817056Y-119451787D02*
X137778352Y-119529197D01*
X137778352Y-119529197D02*
X137700942Y-119567901D01*
X137700942Y-119567901D02*
X137662237Y-119567901D01*
X137662237Y-119567901D02*
X137584828Y-119529197D01*
X137584828Y-119529197D02*
X137546123Y-119451787D01*
X137546123Y-119451787D02*
X137546123Y-119335673D01*
X137546123Y-119335673D02*
X137507418Y-119258263D01*
X137507418Y-119258263D02*
X137430009Y-119219559D01*
X137430009Y-119219559D02*
X137391304Y-119219559D01*
X137391304Y-119219559D02*
X137313894Y-119258263D01*
X137313894Y-119258263D02*
X137275190Y-119335673D01*
X137275190Y-119335673D02*
X137275190Y-119451787D01*
X137275190Y-119451787D02*
X137313894Y-119529197D01*
X140024776Y-108614457D02*
X140024776Y-108343523D01*
X140450528Y-108343523D02*
X139637728Y-108343523D01*
X139637728Y-108343523D02*
X139637728Y-108730571D01*
X140450528Y-109040209D02*
X139908662Y-109040209D01*
X139637728Y-109040209D02*
X139676433Y-109001505D01*
X139676433Y-109001505D02*
X139715138Y-109040209D01*
X139715138Y-109040209D02*
X139676433Y-109078914D01*
X139676433Y-109078914D02*
X139637728Y-109040209D01*
X139637728Y-109040209D02*
X139715138Y-109040209D01*
X140450528Y-109427257D02*
X139908662Y-109427257D01*
X140063481Y-109427257D02*
X139986071Y-109465962D01*
X139986071Y-109465962D02*
X139947366Y-109504667D01*
X139947366Y-109504667D02*
X139908662Y-109582076D01*
X139908662Y-109582076D02*
X139908662Y-109659486D01*
X140411824Y-109891715D02*
X140450528Y-109969124D01*
X140450528Y-109969124D02*
X140450528Y-110123943D01*
X140450528Y-110123943D02*
X140411824Y-110201353D01*
X140411824Y-110201353D02*
X140334414Y-110240057D01*
X140334414Y-110240057D02*
X140295709Y-110240057D01*
X140295709Y-110240057D02*
X140218300Y-110201353D01*
X140218300Y-110201353D02*
X140179595Y-110123943D01*
X140179595Y-110123943D02*
X140179595Y-110007829D01*
X140179595Y-110007829D02*
X140140890Y-109930419D01*
X140140890Y-109930419D02*
X140063481Y-109891715D01*
X140063481Y-109891715D02*
X140024776Y-109891715D01*
X140024776Y-109891715D02*
X139947366Y-109930419D01*
X139947366Y-109930419D02*
X139908662Y-110007829D01*
X139908662Y-110007829D02*
X139908662Y-110123943D01*
X139908662Y-110123943D02*
X139947366Y-110201353D01*
X139908662Y-110472286D02*
X139908662Y-110781924D01*
X139637728Y-110588400D02*
X140334414Y-110588400D01*
X140334414Y-110588400D02*
X140411824Y-110627105D01*
X140411824Y-110627105D02*
X140450528Y-110704515D01*
X140450528Y-110704515D02*
X140450528Y-110781924D01*
X140024776Y-111672133D02*
X140024776Y-111943067D01*
X140450528Y-112059181D02*
X140450528Y-111672133D01*
X140450528Y-111672133D02*
X139637728Y-111672133D01*
X139637728Y-111672133D02*
X139637728Y-112059181D01*
X140450528Y-112755866D02*
X139637728Y-112755866D01*
X140411824Y-112755866D02*
X140450528Y-112678457D01*
X140450528Y-112678457D02*
X140450528Y-112523638D01*
X140450528Y-112523638D02*
X140411824Y-112446228D01*
X140411824Y-112446228D02*
X140373119Y-112407523D01*
X140373119Y-112407523D02*
X140295709Y-112368819D01*
X140295709Y-112368819D02*
X140063481Y-112368819D01*
X140063481Y-112368819D02*
X139986071Y-112407523D01*
X139986071Y-112407523D02*
X139947366Y-112446228D01*
X139947366Y-112446228D02*
X139908662Y-112523638D01*
X139908662Y-112523638D02*
X139908662Y-112678457D01*
X139908662Y-112678457D02*
X139947366Y-112755866D01*
X140450528Y-113142913D02*
X139908662Y-113142913D01*
X139637728Y-113142913D02*
X139676433Y-113104209D01*
X139676433Y-113104209D02*
X139715138Y-113142913D01*
X139715138Y-113142913D02*
X139676433Y-113181618D01*
X139676433Y-113181618D02*
X139637728Y-113142913D01*
X139637728Y-113142913D02*
X139715138Y-113142913D01*
X139908662Y-113413847D02*
X139908662Y-113723485D01*
X139637728Y-113529961D02*
X140334414Y-113529961D01*
X140334414Y-113529961D02*
X140411824Y-113568666D01*
X140411824Y-113568666D02*
X140450528Y-113646076D01*
X140450528Y-113646076D02*
X140450528Y-113723485D01*
X140450528Y-113994418D02*
X139908662Y-113994418D01*
X139637728Y-113994418D02*
X139676433Y-113955714D01*
X139676433Y-113955714D02*
X139715138Y-113994418D01*
X139715138Y-113994418D02*
X139676433Y-114033123D01*
X139676433Y-114033123D02*
X139637728Y-113994418D01*
X139637728Y-113994418D02*
X139715138Y-113994418D01*
X140450528Y-114497581D02*
X140411824Y-114420171D01*
X140411824Y-114420171D02*
X140373119Y-114381466D01*
X140373119Y-114381466D02*
X140295709Y-114342762D01*
X140295709Y-114342762D02*
X140063481Y-114342762D01*
X140063481Y-114342762D02*
X139986071Y-114381466D01*
X139986071Y-114381466D02*
X139947366Y-114420171D01*
X139947366Y-114420171D02*
X139908662Y-114497581D01*
X139908662Y-114497581D02*
X139908662Y-114613695D01*
X139908662Y-114613695D02*
X139947366Y-114691104D01*
X139947366Y-114691104D02*
X139986071Y-114729809D01*
X139986071Y-114729809D02*
X140063481Y-114768514D01*
X140063481Y-114768514D02*
X140295709Y-114768514D01*
X140295709Y-114768514D02*
X140373119Y-114729809D01*
X140373119Y-114729809D02*
X140411824Y-114691104D01*
X140411824Y-114691104D02*
X140450528Y-114613695D01*
X140450528Y-114613695D02*
X140450528Y-114497581D01*
X139908662Y-115116856D02*
X140450528Y-115116856D01*
X139986071Y-115116856D02*
X139947366Y-115155561D01*
X139947366Y-115155561D02*
X139908662Y-115232971D01*
X139908662Y-115232971D02*
X139908662Y-115349085D01*
X139908662Y-115349085D02*
X139947366Y-115426494D01*
X139947366Y-115426494D02*
X140024776Y-115465199D01*
X140024776Y-115465199D02*
X140450528Y-115465199D01*
D11*
X146700000Y-126880000D02*
X144200000Y-126880000D01*
X146700000Y-125880000D02*
X146700000Y-126880000D01*
X146700000Y-101880000D02*
X146700000Y-109880000D01*
X146700000Y-101880000D02*
X129700000Y-101880000D01*
X129700000Y-126880000D02*
X132200000Y-126880000D01*
X129700000Y-126880000D02*
X129700000Y-125880000D01*
X129700000Y-101880000D02*
X129700000Y-109880000D01*
%LPC*%
D12*
X150300000Y-124900000D03*
X126100000Y-124900000D03*
X126100000Y-104100000D03*
D13*
X141100000Y-106050000D03*
X135300000Y-106050000D03*
D14*
X142520000Y-106580000D03*
D15*
X142520000Y-102400000D03*
D14*
X133880000Y-106580000D03*
D15*
X133880000Y-102400000D03*
D12*
X150300000Y-104100000D03*
D16*
X146200000Y-110900000D03*
X146200000Y-112900000D03*
X146200000Y-114900000D03*
X146200000Y-116900000D03*
X146200000Y-118900000D03*
X146200000Y-120900000D03*
X146200000Y-122900000D03*
X146200000Y-124900000D03*
D17*
X143200000Y-126380000D03*
X141200000Y-126380000D03*
X139200000Y-126380000D03*
X137200000Y-126380000D03*
X135200000Y-126380000D03*
X133200000Y-126380000D03*
D16*
X130200000Y-124900000D03*
X130200000Y-122900000D03*
X130200000Y-120900000D03*
X130200000Y-118900000D03*
X130200000Y-116900000D03*
X130200000Y-114900000D03*
X130200000Y-112900000D03*
X130200000Y-110900000D03*
M02*
