%TF.GenerationSoftware,KiCad,Pcbnew,7.0.1-0*%
%TF.CreationDate,2023-11-28T20:23:42+01:00*%
%TF.ProjectId,Smart_Lamps,536d6172-745f-44c6-916d-70732e6b6963,rev?*%
%TF.SameCoordinates,Original*%
%TF.FileFunction,Drillmap*%
%TF.FilePolarity,Positive*%
%FSLAX45Y45*%
G04 Gerber Fmt 4.5, Leading zero omitted, Abs format (unit mm)*
G04 Created by KiCad (PCBNEW 7.0.1-0) date 2023-11-28 20:23:42*
%MOMM*%
%LPD*%
G01*
G04 APERTURE LIST*
%ADD10C,0.200000*%
%ADD11C,0.065000*%
G04 APERTURE END LIST*
D10*
X12860000Y-10715000D02*
X12860000Y-12185000D01*
X13820000Y-12800000D02*
X12860000Y-12800000D01*
X12600000Y-10100000D02*
X12860000Y-10100000D01*
X13820000Y-12800000D02*
X14780000Y-12800000D01*
X15040000Y-10100000D02*
X14780000Y-10100000D01*
X12600000Y-10715000D02*
X12860000Y-10715000D01*
X15040000Y-12185000D02*
X14780000Y-12185000D01*
X15040000Y-10715000D02*
X14780000Y-10715000D01*
X12600000Y-10100000D02*
G75*
G03*
X12600000Y-10715000I0J-307500D01*
G01*
X13820000Y-10100000D02*
X12860000Y-10100000D01*
X15040000Y-12800000D02*
G75*
G03*
X15040000Y-12185000I0J307500D01*
G01*
X13820000Y-10100000D02*
X14780000Y-10100000D01*
X15040000Y-12800000D02*
X14780000Y-12800000D01*
X12600000Y-12800000D02*
X12860000Y-12800000D01*
X14780000Y-10715000D02*
X14780000Y-12185000D01*
X12600000Y-12185000D02*
G75*
G03*
X12600000Y-12800000I0J-307500D01*
G01*
X12600000Y-12185000D02*
X12860000Y-12185000D01*
X15040000Y-10715000D02*
G75*
G03*
X15040000Y-10100000I0J307500D01*
G01*
D11*
X13497500Y-10572500D02*
X13562500Y-10637500D01*
X13562500Y-10572500D02*
X13497500Y-10637500D01*
X14077500Y-10572500D02*
X14142500Y-10637500D01*
X14142500Y-10572500D02*
X14077500Y-10637500D01*
D10*
X12530119Y-13122524D02*
X12530119Y-12922524D01*
X12530119Y-12922524D02*
X12577738Y-12922524D01*
X12577738Y-12922524D02*
X12606309Y-12932048D01*
X12606309Y-12932048D02*
X12625357Y-12951095D01*
X12625357Y-12951095D02*
X12634881Y-12970143D01*
X12634881Y-12970143D02*
X12644405Y-13008238D01*
X12644405Y-13008238D02*
X12644405Y-13036809D01*
X12644405Y-13036809D02*
X12634881Y-13074905D01*
X12634881Y-13074905D02*
X12625357Y-13093952D01*
X12625357Y-13093952D02*
X12606309Y-13113000D01*
X12606309Y-13113000D02*
X12577738Y-13122524D01*
X12577738Y-13122524D02*
X12530119Y-13122524D01*
X12730119Y-13122524D02*
X12730119Y-12989190D01*
X12730119Y-13027286D02*
X12739643Y-13008238D01*
X12739643Y-13008238D02*
X12749167Y-12998714D01*
X12749167Y-12998714D02*
X12768214Y-12989190D01*
X12768214Y-12989190D02*
X12787262Y-12989190D01*
X12853928Y-13122524D02*
X12853928Y-12989190D01*
X12853928Y-12922524D02*
X12844405Y-12932048D01*
X12844405Y-12932048D02*
X12853928Y-12941571D01*
X12853928Y-12941571D02*
X12863452Y-12932048D01*
X12863452Y-12932048D02*
X12853928Y-12922524D01*
X12853928Y-12922524D02*
X12853928Y-12941571D01*
X12977738Y-13122524D02*
X12958690Y-13113000D01*
X12958690Y-13113000D02*
X12949167Y-13093952D01*
X12949167Y-13093952D02*
X12949167Y-12922524D01*
X13082500Y-13122524D02*
X13063452Y-13113000D01*
X13063452Y-13113000D02*
X13053928Y-13093952D01*
X13053928Y-13093952D02*
X13053928Y-12922524D01*
X13311071Y-13122524D02*
X13311071Y-12922524D01*
X13311071Y-12922524D02*
X13377738Y-13065381D01*
X13377738Y-13065381D02*
X13444405Y-12922524D01*
X13444405Y-12922524D02*
X13444405Y-13122524D01*
X13625357Y-13122524D02*
X13625357Y-13017762D01*
X13625357Y-13017762D02*
X13615833Y-12998714D01*
X13615833Y-12998714D02*
X13596786Y-12989190D01*
X13596786Y-12989190D02*
X13558690Y-12989190D01*
X13558690Y-12989190D02*
X13539643Y-12998714D01*
X13625357Y-13113000D02*
X13606309Y-13122524D01*
X13606309Y-13122524D02*
X13558690Y-13122524D01*
X13558690Y-13122524D02*
X13539643Y-13113000D01*
X13539643Y-13113000D02*
X13530119Y-13093952D01*
X13530119Y-13093952D02*
X13530119Y-13074905D01*
X13530119Y-13074905D02*
X13539643Y-13055857D01*
X13539643Y-13055857D02*
X13558690Y-13046333D01*
X13558690Y-13046333D02*
X13606309Y-13046333D01*
X13606309Y-13046333D02*
X13625357Y-13036809D01*
X13720595Y-12989190D02*
X13720595Y-13189190D01*
X13720595Y-12998714D02*
X13739643Y-12989190D01*
X13739643Y-12989190D02*
X13777738Y-12989190D01*
X13777738Y-12989190D02*
X13796786Y-12998714D01*
X13796786Y-12998714D02*
X13806309Y-13008238D01*
X13806309Y-13008238D02*
X13815833Y-13027286D01*
X13815833Y-13027286D02*
X13815833Y-13084428D01*
X13815833Y-13084428D02*
X13806309Y-13103476D01*
X13806309Y-13103476D02*
X13796786Y-13113000D01*
X13796786Y-13113000D02*
X13777738Y-13122524D01*
X13777738Y-13122524D02*
X13739643Y-13122524D01*
X13739643Y-13122524D02*
X13720595Y-13113000D01*
X13901548Y-13103476D02*
X13911071Y-13113000D01*
X13911071Y-13113000D02*
X13901548Y-13122524D01*
X13901548Y-13122524D02*
X13892024Y-13113000D01*
X13892024Y-13113000D02*
X13901548Y-13103476D01*
X13901548Y-13103476D02*
X13901548Y-13122524D01*
X13901548Y-12998714D02*
X13911071Y-13008238D01*
X13911071Y-13008238D02*
X13901548Y-13017762D01*
X13901548Y-13017762D02*
X13892024Y-13008238D01*
X13892024Y-13008238D02*
X13901548Y-12998714D01*
X13901548Y-12998714D02*
X13901548Y-13017762D01*
D11*
X12217500Y-13417500D02*
X12282500Y-13482500D01*
X12282500Y-13417500D02*
X12217500Y-13482500D01*
D10*
X12568214Y-13342524D02*
X12587262Y-13342524D01*
X12587262Y-13342524D02*
X12606309Y-13352048D01*
X12606309Y-13352048D02*
X12615833Y-13361571D01*
X12615833Y-13361571D02*
X12625357Y-13380619D01*
X12625357Y-13380619D02*
X12634881Y-13418714D01*
X12634881Y-13418714D02*
X12634881Y-13466333D01*
X12634881Y-13466333D02*
X12625357Y-13504428D01*
X12625357Y-13504428D02*
X12615833Y-13523476D01*
X12615833Y-13523476D02*
X12606309Y-13533000D01*
X12606309Y-13533000D02*
X12587262Y-13542524D01*
X12587262Y-13542524D02*
X12568214Y-13542524D01*
X12568214Y-13542524D02*
X12549167Y-13533000D01*
X12549167Y-13533000D02*
X12539643Y-13523476D01*
X12539643Y-13523476D02*
X12530119Y-13504428D01*
X12530119Y-13504428D02*
X12520595Y-13466333D01*
X12520595Y-13466333D02*
X12520595Y-13418714D01*
X12520595Y-13418714D02*
X12530119Y-13380619D01*
X12530119Y-13380619D02*
X12539643Y-13361571D01*
X12539643Y-13361571D02*
X12549167Y-13352048D01*
X12549167Y-13352048D02*
X12568214Y-13342524D01*
X12720595Y-13523476D02*
X12730119Y-13533000D01*
X12730119Y-13533000D02*
X12720595Y-13542524D01*
X12720595Y-13542524D02*
X12711071Y-13533000D01*
X12711071Y-13533000D02*
X12720595Y-13523476D01*
X12720595Y-13523476D02*
X12720595Y-13542524D01*
X12901548Y-13342524D02*
X12863452Y-13342524D01*
X12863452Y-13342524D02*
X12844405Y-13352048D01*
X12844405Y-13352048D02*
X12834881Y-13361571D01*
X12834881Y-13361571D02*
X12815833Y-13390143D01*
X12815833Y-13390143D02*
X12806309Y-13428238D01*
X12806309Y-13428238D02*
X12806309Y-13504428D01*
X12806309Y-13504428D02*
X12815833Y-13523476D01*
X12815833Y-13523476D02*
X12825357Y-13533000D01*
X12825357Y-13533000D02*
X12844405Y-13542524D01*
X12844405Y-13542524D02*
X12882500Y-13542524D01*
X12882500Y-13542524D02*
X12901548Y-13533000D01*
X12901548Y-13533000D02*
X12911071Y-13523476D01*
X12911071Y-13523476D02*
X12920595Y-13504428D01*
X12920595Y-13504428D02*
X12920595Y-13456809D01*
X12920595Y-13456809D02*
X12911071Y-13437762D01*
X12911071Y-13437762D02*
X12901548Y-13428238D01*
X12901548Y-13428238D02*
X12882500Y-13418714D01*
X12882500Y-13418714D02*
X12844405Y-13418714D01*
X12844405Y-13418714D02*
X12825357Y-13428238D01*
X12825357Y-13428238D02*
X12815833Y-13437762D01*
X12815833Y-13437762D02*
X12806309Y-13456809D01*
X13101548Y-13342524D02*
X13006309Y-13342524D01*
X13006309Y-13342524D02*
X12996786Y-13437762D01*
X12996786Y-13437762D02*
X13006309Y-13428238D01*
X13006309Y-13428238D02*
X13025357Y-13418714D01*
X13025357Y-13418714D02*
X13072976Y-13418714D01*
X13072976Y-13418714D02*
X13092024Y-13428238D01*
X13092024Y-13428238D02*
X13101548Y-13437762D01*
X13101548Y-13437762D02*
X13111071Y-13456809D01*
X13111071Y-13456809D02*
X13111071Y-13504428D01*
X13111071Y-13504428D02*
X13101548Y-13523476D01*
X13101548Y-13523476D02*
X13092024Y-13533000D01*
X13092024Y-13533000D02*
X13072976Y-13542524D01*
X13072976Y-13542524D02*
X13025357Y-13542524D01*
X13025357Y-13542524D02*
X13006309Y-13533000D01*
X13006309Y-13533000D02*
X12996786Y-13523476D01*
X13234881Y-13342524D02*
X13253929Y-13342524D01*
X13253929Y-13342524D02*
X13272976Y-13352048D01*
X13272976Y-13352048D02*
X13282500Y-13361571D01*
X13282500Y-13361571D02*
X13292024Y-13380619D01*
X13292024Y-13380619D02*
X13301548Y-13418714D01*
X13301548Y-13418714D02*
X13301548Y-13466333D01*
X13301548Y-13466333D02*
X13292024Y-13504428D01*
X13292024Y-13504428D02*
X13282500Y-13523476D01*
X13282500Y-13523476D02*
X13272976Y-13533000D01*
X13272976Y-13533000D02*
X13253929Y-13542524D01*
X13253929Y-13542524D02*
X13234881Y-13542524D01*
X13234881Y-13542524D02*
X13215833Y-13533000D01*
X13215833Y-13533000D02*
X13206309Y-13523476D01*
X13206309Y-13523476D02*
X13196786Y-13504428D01*
X13196786Y-13504428D02*
X13187262Y-13466333D01*
X13187262Y-13466333D02*
X13187262Y-13418714D01*
X13187262Y-13418714D02*
X13196786Y-13380619D01*
X13196786Y-13380619D02*
X13206309Y-13361571D01*
X13206309Y-13361571D02*
X13215833Y-13352048D01*
X13215833Y-13352048D02*
X13234881Y-13342524D01*
X13387262Y-13542524D02*
X13387262Y-13409190D01*
X13387262Y-13428238D02*
X13396786Y-13418714D01*
X13396786Y-13418714D02*
X13415833Y-13409190D01*
X13415833Y-13409190D02*
X13444405Y-13409190D01*
X13444405Y-13409190D02*
X13463452Y-13418714D01*
X13463452Y-13418714D02*
X13472976Y-13437762D01*
X13472976Y-13437762D02*
X13472976Y-13542524D01*
X13472976Y-13437762D02*
X13482500Y-13418714D01*
X13482500Y-13418714D02*
X13501548Y-13409190D01*
X13501548Y-13409190D02*
X13530119Y-13409190D01*
X13530119Y-13409190D02*
X13549167Y-13418714D01*
X13549167Y-13418714D02*
X13558690Y-13437762D01*
X13558690Y-13437762D02*
X13558690Y-13542524D01*
X13653929Y-13542524D02*
X13653929Y-13409190D01*
X13653929Y-13428238D02*
X13663452Y-13418714D01*
X13663452Y-13418714D02*
X13682500Y-13409190D01*
X13682500Y-13409190D02*
X13711071Y-13409190D01*
X13711071Y-13409190D02*
X13730119Y-13418714D01*
X13730119Y-13418714D02*
X13739643Y-13437762D01*
X13739643Y-13437762D02*
X13739643Y-13542524D01*
X13739643Y-13437762D02*
X13749167Y-13418714D01*
X13749167Y-13418714D02*
X13768214Y-13409190D01*
X13768214Y-13409190D02*
X13796786Y-13409190D01*
X13796786Y-13409190D02*
X13815833Y-13418714D01*
X13815833Y-13418714D02*
X13825357Y-13437762D01*
X13825357Y-13437762D02*
X13825357Y-13542524D01*
X14215833Y-13333000D02*
X14044405Y-13590143D01*
X14472976Y-13342524D02*
X14492024Y-13342524D01*
X14492024Y-13342524D02*
X14511072Y-13352048D01*
X14511072Y-13352048D02*
X14520595Y-13361571D01*
X14520595Y-13361571D02*
X14530119Y-13380619D01*
X14530119Y-13380619D02*
X14539643Y-13418714D01*
X14539643Y-13418714D02*
X14539643Y-13466333D01*
X14539643Y-13466333D02*
X14530119Y-13504428D01*
X14530119Y-13504428D02*
X14520595Y-13523476D01*
X14520595Y-13523476D02*
X14511072Y-13533000D01*
X14511072Y-13533000D02*
X14492024Y-13542524D01*
X14492024Y-13542524D02*
X14472976Y-13542524D01*
X14472976Y-13542524D02*
X14453929Y-13533000D01*
X14453929Y-13533000D02*
X14444405Y-13523476D01*
X14444405Y-13523476D02*
X14434881Y-13504428D01*
X14434881Y-13504428D02*
X14425357Y-13466333D01*
X14425357Y-13466333D02*
X14425357Y-13418714D01*
X14425357Y-13418714D02*
X14434881Y-13380619D01*
X14434881Y-13380619D02*
X14444405Y-13361571D01*
X14444405Y-13361571D02*
X14453929Y-13352048D01*
X14453929Y-13352048D02*
X14472976Y-13342524D01*
X14625357Y-13523476D02*
X14634881Y-13533000D01*
X14634881Y-13533000D02*
X14625357Y-13542524D01*
X14625357Y-13542524D02*
X14615833Y-13533000D01*
X14615833Y-13533000D02*
X14625357Y-13523476D01*
X14625357Y-13523476D02*
X14625357Y-13542524D01*
X14758691Y-13342524D02*
X14777738Y-13342524D01*
X14777738Y-13342524D02*
X14796786Y-13352048D01*
X14796786Y-13352048D02*
X14806310Y-13361571D01*
X14806310Y-13361571D02*
X14815833Y-13380619D01*
X14815833Y-13380619D02*
X14825357Y-13418714D01*
X14825357Y-13418714D02*
X14825357Y-13466333D01*
X14825357Y-13466333D02*
X14815833Y-13504428D01*
X14815833Y-13504428D02*
X14806310Y-13523476D01*
X14806310Y-13523476D02*
X14796786Y-13533000D01*
X14796786Y-13533000D02*
X14777738Y-13542524D01*
X14777738Y-13542524D02*
X14758691Y-13542524D01*
X14758691Y-13542524D02*
X14739643Y-13533000D01*
X14739643Y-13533000D02*
X14730119Y-13523476D01*
X14730119Y-13523476D02*
X14720595Y-13504428D01*
X14720595Y-13504428D02*
X14711072Y-13466333D01*
X14711072Y-13466333D02*
X14711072Y-13418714D01*
X14711072Y-13418714D02*
X14720595Y-13380619D01*
X14720595Y-13380619D02*
X14730119Y-13361571D01*
X14730119Y-13361571D02*
X14739643Y-13352048D01*
X14739643Y-13352048D02*
X14758691Y-13342524D01*
X14901548Y-13361571D02*
X14911072Y-13352048D01*
X14911072Y-13352048D02*
X14930119Y-13342524D01*
X14930119Y-13342524D02*
X14977738Y-13342524D01*
X14977738Y-13342524D02*
X14996786Y-13352048D01*
X14996786Y-13352048D02*
X15006310Y-13361571D01*
X15006310Y-13361571D02*
X15015833Y-13380619D01*
X15015833Y-13380619D02*
X15015833Y-13399667D01*
X15015833Y-13399667D02*
X15006310Y-13428238D01*
X15006310Y-13428238D02*
X14892024Y-13542524D01*
X14892024Y-13542524D02*
X15015833Y-13542524D01*
X15196786Y-13342524D02*
X15101548Y-13342524D01*
X15101548Y-13342524D02*
X15092024Y-13437762D01*
X15092024Y-13437762D02*
X15101548Y-13428238D01*
X15101548Y-13428238D02*
X15120595Y-13418714D01*
X15120595Y-13418714D02*
X15168214Y-13418714D01*
X15168214Y-13418714D02*
X15187262Y-13428238D01*
X15187262Y-13428238D02*
X15196786Y-13437762D01*
X15196786Y-13437762D02*
X15206310Y-13456809D01*
X15206310Y-13456809D02*
X15206310Y-13504428D01*
X15206310Y-13504428D02*
X15196786Y-13523476D01*
X15196786Y-13523476D02*
X15187262Y-13533000D01*
X15187262Y-13533000D02*
X15168214Y-13542524D01*
X15168214Y-13542524D02*
X15120595Y-13542524D01*
X15120595Y-13542524D02*
X15101548Y-13533000D01*
X15101548Y-13533000D02*
X15092024Y-13523476D01*
X15377738Y-13342524D02*
X15339643Y-13342524D01*
X15339643Y-13342524D02*
X15320595Y-13352048D01*
X15320595Y-13352048D02*
X15311072Y-13361571D01*
X15311072Y-13361571D02*
X15292024Y-13390143D01*
X15292024Y-13390143D02*
X15282500Y-13428238D01*
X15282500Y-13428238D02*
X15282500Y-13504428D01*
X15282500Y-13504428D02*
X15292024Y-13523476D01*
X15292024Y-13523476D02*
X15301548Y-13533000D01*
X15301548Y-13533000D02*
X15320595Y-13542524D01*
X15320595Y-13542524D02*
X15358691Y-13542524D01*
X15358691Y-13542524D02*
X15377738Y-13533000D01*
X15377738Y-13533000D02*
X15387262Y-13523476D01*
X15387262Y-13523476D02*
X15396786Y-13504428D01*
X15396786Y-13504428D02*
X15396786Y-13456809D01*
X15396786Y-13456809D02*
X15387262Y-13437762D01*
X15387262Y-13437762D02*
X15377738Y-13428238D01*
X15377738Y-13428238D02*
X15358691Y-13418714D01*
X15358691Y-13418714D02*
X15320595Y-13418714D01*
X15320595Y-13418714D02*
X15301548Y-13428238D01*
X15301548Y-13428238D02*
X15292024Y-13437762D01*
X15292024Y-13437762D02*
X15282500Y-13456809D01*
X15472976Y-13342524D02*
X15472976Y-13380619D01*
X15549167Y-13342524D02*
X15549167Y-13380619D01*
X15844405Y-13618714D02*
X15834881Y-13609190D01*
X15834881Y-13609190D02*
X15815834Y-13580619D01*
X15815834Y-13580619D02*
X15806310Y-13561571D01*
X15806310Y-13561571D02*
X15796786Y-13533000D01*
X15796786Y-13533000D02*
X15787262Y-13485381D01*
X15787262Y-13485381D02*
X15787262Y-13447286D01*
X15787262Y-13447286D02*
X15796786Y-13399667D01*
X15796786Y-13399667D02*
X15806310Y-13371095D01*
X15806310Y-13371095D02*
X15815834Y-13352048D01*
X15815834Y-13352048D02*
X15834881Y-13323476D01*
X15834881Y-13323476D02*
X15844405Y-13313952D01*
X15911072Y-13361571D02*
X15920595Y-13352048D01*
X15920595Y-13352048D02*
X15939643Y-13342524D01*
X15939643Y-13342524D02*
X15987262Y-13342524D01*
X15987262Y-13342524D02*
X16006310Y-13352048D01*
X16006310Y-13352048D02*
X16015834Y-13361571D01*
X16015834Y-13361571D02*
X16025357Y-13380619D01*
X16025357Y-13380619D02*
X16025357Y-13399667D01*
X16025357Y-13399667D02*
X16015834Y-13428238D01*
X16015834Y-13428238D02*
X15901548Y-13542524D01*
X15901548Y-13542524D02*
X16025357Y-13542524D01*
X16263453Y-13542524D02*
X16263453Y-13342524D01*
X16349167Y-13542524D02*
X16349167Y-13437762D01*
X16349167Y-13437762D02*
X16339643Y-13418714D01*
X16339643Y-13418714D02*
X16320596Y-13409190D01*
X16320596Y-13409190D02*
X16292024Y-13409190D01*
X16292024Y-13409190D02*
X16272976Y-13418714D01*
X16272976Y-13418714D02*
X16263453Y-13428238D01*
X16472976Y-13542524D02*
X16453929Y-13533000D01*
X16453929Y-13533000D02*
X16444405Y-13523476D01*
X16444405Y-13523476D02*
X16434881Y-13504428D01*
X16434881Y-13504428D02*
X16434881Y-13447286D01*
X16434881Y-13447286D02*
X16444405Y-13428238D01*
X16444405Y-13428238D02*
X16453929Y-13418714D01*
X16453929Y-13418714D02*
X16472976Y-13409190D01*
X16472976Y-13409190D02*
X16501548Y-13409190D01*
X16501548Y-13409190D02*
X16520596Y-13418714D01*
X16520596Y-13418714D02*
X16530119Y-13428238D01*
X16530119Y-13428238D02*
X16539643Y-13447286D01*
X16539643Y-13447286D02*
X16539643Y-13504428D01*
X16539643Y-13504428D02*
X16530119Y-13523476D01*
X16530119Y-13523476D02*
X16520596Y-13533000D01*
X16520596Y-13533000D02*
X16501548Y-13542524D01*
X16501548Y-13542524D02*
X16472976Y-13542524D01*
X16653929Y-13542524D02*
X16634881Y-13533000D01*
X16634881Y-13533000D02*
X16625357Y-13513952D01*
X16625357Y-13513952D02*
X16625357Y-13342524D01*
X16806310Y-13533000D02*
X16787262Y-13542524D01*
X16787262Y-13542524D02*
X16749167Y-13542524D01*
X16749167Y-13542524D02*
X16730119Y-13533000D01*
X16730119Y-13533000D02*
X16720596Y-13513952D01*
X16720596Y-13513952D02*
X16720596Y-13437762D01*
X16720596Y-13437762D02*
X16730119Y-13418714D01*
X16730119Y-13418714D02*
X16749167Y-13409190D01*
X16749167Y-13409190D02*
X16787262Y-13409190D01*
X16787262Y-13409190D02*
X16806310Y-13418714D01*
X16806310Y-13418714D02*
X16815834Y-13437762D01*
X16815834Y-13437762D02*
X16815834Y-13456809D01*
X16815834Y-13456809D02*
X16720596Y-13475857D01*
X16892024Y-13533000D02*
X16911072Y-13542524D01*
X16911072Y-13542524D02*
X16949167Y-13542524D01*
X16949167Y-13542524D02*
X16968215Y-13533000D01*
X16968215Y-13533000D02*
X16977739Y-13513952D01*
X16977739Y-13513952D02*
X16977739Y-13504428D01*
X16977739Y-13504428D02*
X16968215Y-13485381D01*
X16968215Y-13485381D02*
X16949167Y-13475857D01*
X16949167Y-13475857D02*
X16920596Y-13475857D01*
X16920596Y-13475857D02*
X16901548Y-13466333D01*
X16901548Y-13466333D02*
X16892024Y-13447286D01*
X16892024Y-13447286D02*
X16892024Y-13437762D01*
X16892024Y-13437762D02*
X16901548Y-13418714D01*
X16901548Y-13418714D02*
X16920596Y-13409190D01*
X16920596Y-13409190D02*
X16949167Y-13409190D01*
X16949167Y-13409190D02*
X16968215Y-13418714D01*
X17044405Y-13618714D02*
X17053929Y-13609190D01*
X17053929Y-13609190D02*
X17072977Y-13580619D01*
X17072977Y-13580619D02*
X17082500Y-13561571D01*
X17082500Y-13561571D02*
X17092024Y-13533000D01*
X17092024Y-13533000D02*
X17101548Y-13485381D01*
X17101548Y-13485381D02*
X17101548Y-13447286D01*
X17101548Y-13447286D02*
X17092024Y-13399667D01*
X17092024Y-13399667D02*
X17082500Y-13371095D01*
X17082500Y-13371095D02*
X17072977Y-13352048D01*
X17072977Y-13352048D02*
X17053929Y-13323476D01*
X17053929Y-13323476D02*
X17044405Y-13313952D01*
X17406310Y-13618714D02*
X17396786Y-13609190D01*
X17396786Y-13609190D02*
X17377739Y-13580619D01*
X17377739Y-13580619D02*
X17368215Y-13561571D01*
X17368215Y-13561571D02*
X17358691Y-13533000D01*
X17358691Y-13533000D02*
X17349167Y-13485381D01*
X17349167Y-13485381D02*
X17349167Y-13447286D01*
X17349167Y-13447286D02*
X17358691Y-13399667D01*
X17358691Y-13399667D02*
X17368215Y-13371095D01*
X17368215Y-13371095D02*
X17377739Y-13352048D01*
X17377739Y-13352048D02*
X17396786Y-13323476D01*
X17396786Y-13323476D02*
X17406310Y-13313952D01*
X17482500Y-13409190D02*
X17482500Y-13542524D01*
X17482500Y-13428238D02*
X17492024Y-13418714D01*
X17492024Y-13418714D02*
X17511072Y-13409190D01*
X17511072Y-13409190D02*
X17539643Y-13409190D01*
X17539643Y-13409190D02*
X17558691Y-13418714D01*
X17558691Y-13418714D02*
X17568215Y-13437762D01*
X17568215Y-13437762D02*
X17568215Y-13542524D01*
X17692024Y-13542524D02*
X17672977Y-13533000D01*
X17672977Y-13533000D02*
X17663453Y-13523476D01*
X17663453Y-13523476D02*
X17653929Y-13504428D01*
X17653929Y-13504428D02*
X17653929Y-13447286D01*
X17653929Y-13447286D02*
X17663453Y-13428238D01*
X17663453Y-13428238D02*
X17672977Y-13418714D01*
X17672977Y-13418714D02*
X17692024Y-13409190D01*
X17692024Y-13409190D02*
X17720596Y-13409190D01*
X17720596Y-13409190D02*
X17739643Y-13418714D01*
X17739643Y-13418714D02*
X17749167Y-13428238D01*
X17749167Y-13428238D02*
X17758691Y-13447286D01*
X17758691Y-13447286D02*
X17758691Y-13504428D01*
X17758691Y-13504428D02*
X17749167Y-13523476D01*
X17749167Y-13523476D02*
X17739643Y-13533000D01*
X17739643Y-13533000D02*
X17720596Y-13542524D01*
X17720596Y-13542524D02*
X17692024Y-13542524D01*
X17815834Y-13409190D02*
X17892024Y-13409190D01*
X17844405Y-13342524D02*
X17844405Y-13513952D01*
X17844405Y-13513952D02*
X17853929Y-13533000D01*
X17853929Y-13533000D02*
X17872977Y-13542524D01*
X17872977Y-13542524D02*
X17892024Y-13542524D01*
X18111072Y-13409190D02*
X18111072Y-13609190D01*
X18111072Y-13418714D02*
X18130120Y-13409190D01*
X18130120Y-13409190D02*
X18168215Y-13409190D01*
X18168215Y-13409190D02*
X18187262Y-13418714D01*
X18187262Y-13418714D02*
X18196786Y-13428238D01*
X18196786Y-13428238D02*
X18206310Y-13447286D01*
X18206310Y-13447286D02*
X18206310Y-13504428D01*
X18206310Y-13504428D02*
X18196786Y-13523476D01*
X18196786Y-13523476D02*
X18187262Y-13533000D01*
X18187262Y-13533000D02*
X18168215Y-13542524D01*
X18168215Y-13542524D02*
X18130120Y-13542524D01*
X18130120Y-13542524D02*
X18111072Y-13533000D01*
X18320596Y-13542524D02*
X18301548Y-13533000D01*
X18301548Y-13533000D02*
X18292024Y-13513952D01*
X18292024Y-13513952D02*
X18292024Y-13342524D01*
X18482501Y-13542524D02*
X18482501Y-13437762D01*
X18482501Y-13437762D02*
X18472977Y-13418714D01*
X18472977Y-13418714D02*
X18453929Y-13409190D01*
X18453929Y-13409190D02*
X18415834Y-13409190D01*
X18415834Y-13409190D02*
X18396786Y-13418714D01*
X18482501Y-13533000D02*
X18463453Y-13542524D01*
X18463453Y-13542524D02*
X18415834Y-13542524D01*
X18415834Y-13542524D02*
X18396786Y-13533000D01*
X18396786Y-13533000D02*
X18387262Y-13513952D01*
X18387262Y-13513952D02*
X18387262Y-13494905D01*
X18387262Y-13494905D02*
X18396786Y-13475857D01*
X18396786Y-13475857D02*
X18415834Y-13466333D01*
X18415834Y-13466333D02*
X18463453Y-13466333D01*
X18463453Y-13466333D02*
X18482501Y-13456809D01*
X18549167Y-13409190D02*
X18625358Y-13409190D01*
X18577739Y-13342524D02*
X18577739Y-13513952D01*
X18577739Y-13513952D02*
X18587262Y-13533000D01*
X18587262Y-13533000D02*
X18606310Y-13542524D01*
X18606310Y-13542524D02*
X18625358Y-13542524D01*
X18768215Y-13533000D02*
X18749167Y-13542524D01*
X18749167Y-13542524D02*
X18711072Y-13542524D01*
X18711072Y-13542524D02*
X18692024Y-13533000D01*
X18692024Y-13533000D02*
X18682501Y-13513952D01*
X18682501Y-13513952D02*
X18682501Y-13437762D01*
X18682501Y-13437762D02*
X18692024Y-13418714D01*
X18692024Y-13418714D02*
X18711072Y-13409190D01*
X18711072Y-13409190D02*
X18749167Y-13409190D01*
X18749167Y-13409190D02*
X18768215Y-13418714D01*
X18768215Y-13418714D02*
X18777739Y-13437762D01*
X18777739Y-13437762D02*
X18777739Y-13456809D01*
X18777739Y-13456809D02*
X18682501Y-13475857D01*
X18949167Y-13542524D02*
X18949167Y-13342524D01*
X18949167Y-13533000D02*
X18930120Y-13542524D01*
X18930120Y-13542524D02*
X18892024Y-13542524D01*
X18892024Y-13542524D02*
X18872977Y-13533000D01*
X18872977Y-13533000D02*
X18863453Y-13523476D01*
X18863453Y-13523476D02*
X18853929Y-13504428D01*
X18853929Y-13504428D02*
X18853929Y-13447286D01*
X18853929Y-13447286D02*
X18863453Y-13428238D01*
X18863453Y-13428238D02*
X18872977Y-13418714D01*
X18872977Y-13418714D02*
X18892024Y-13409190D01*
X18892024Y-13409190D02*
X18930120Y-13409190D01*
X18930120Y-13409190D02*
X18949167Y-13418714D01*
X19025358Y-13618714D02*
X19034882Y-13609190D01*
X19034882Y-13609190D02*
X19053929Y-13580619D01*
X19053929Y-13580619D02*
X19063453Y-13561571D01*
X19063453Y-13561571D02*
X19072977Y-13533000D01*
X19072977Y-13533000D02*
X19082501Y-13485381D01*
X19082501Y-13485381D02*
X19082501Y-13447286D01*
X19082501Y-13447286D02*
X19072977Y-13399667D01*
X19072977Y-13399667D02*
X19063453Y-13371095D01*
X19063453Y-13371095D02*
X19053929Y-13352048D01*
X19053929Y-13352048D02*
X19034882Y-13323476D01*
X19034882Y-13323476D02*
X19025358Y-13313952D01*
M02*
