M48
; DRILL file {KiCad 7.0.1-0} date 2023 November 28, Tuesday 20:23:41
; FORMAT={-:-/ absolute / metric / decimal}
; #@! TF.CreationDate,2023-11-28T20:23:41+01:00
; #@! TF.GenerationSoftware,Kicad,Pcbnew,7.0.1-0
; #@! TF.FileFunction,Plated,1,2,PTH
FMAT,2
METRIC
; #@! TA.AperFunction,Plated,PTH,ViaDrill
T1C0.300
; #@! TA.AperFunction,Plated,PTH,ComponentDrill
T2C0.600
; #@! TA.AperFunction,Plated,PTH,ComponentDrill
T3C3.200
%
G90
G05
T1
X130.2Y-104.2
X130.9Y-104.6
X131.0Y-118.6
X131.0Y-126.6
X131.45Y-108.1
X131.6Y-105.0
X132.177Y-115.306
X132.25Y-108.1
X132.3Y-123.7
X132.4Y-118.2
X133.6Y-120.4
X133.714Y-122.786
X135.0Y-118.8
X136.5Y-104.9
X136.9Y-115.9
X137.7Y-124.0
X137.8Y-106.4
X138.8Y-103.8
X139.0Y-106.4
X139.5Y-105.2
X140.1Y-123.3
X143.9Y-122.6
X145.1Y-105.6
X145.9Y-109.55
X146.7Y-113.927
T3
X126.1Y-104.1
X126.1Y-124.9
X150.3Y-104.1
X150.3Y-124.9
T2
X133.88Y-102.7G85X133.88Y-102.1
G05
X133.88Y-107.13G85X133.88Y-106.03
G05
X142.52Y-102.7G85X142.52Y-102.1
G05
X142.52Y-107.13G85X142.52Y-106.03
G05
T0
M30
