G04 #@! TF.GenerationSoftware,KiCad,Pcbnew,7.0.1-0*
G04 #@! TF.CreationDate,2024-01-29T00:44:29+01:00*
G04 #@! TF.ProjectId,Smart_Lamps,536d6172-745f-44c6-916d-70732e6b6963,rev?*
G04 #@! TF.SameCoordinates,Original*
G04 #@! TF.FileFunction,Copper,L2,Bot*
G04 #@! TF.FilePolarity,Positive*
%FSLAX46Y46*%
G04 Gerber Fmt 4.6, Leading zero omitted, Abs format (unit mm)*
G04 Created by KiCad (PCBNEW 7.0.1-0) date 2024-01-29 00:44:29*
%MOMM*%
%LPD*%
G01*
G04 APERTURE LIST*
G04 Aperture macros list*
%AMRoundRect*
0 Rectangle with rounded corners*
0 $1 Rounding radius*
0 $2 $3 $4 $5 $6 $7 $8 $9 X,Y pos of 4 corners*
0 Add a 4 corners polygon primitive as box body*
4,1,4,$2,$3,$4,$5,$6,$7,$8,$9,$2,$3,0*
0 Add four circle primitives for the rounded corners*
1,1,$1+$1,$2,$3*
1,1,$1+$1,$4,$5*
1,1,$1+$1,$6,$7*
1,1,$1+$1,$8,$9*
0 Add four rect primitives between the rounded corners*
20,1,$1+$1,$2,$3,$4,$5,0*
20,1,$1+$1,$4,$5,$6,$7,0*
20,1,$1+$1,$6,$7,$8,$9,0*
20,1,$1+$1,$8,$9,$2,$3,0*%
G04 Aperture macros list end*
G04 #@! TA.AperFunction,ComponentPad*
%ADD10C,3.600000*%
G04 #@! TD*
G04 #@! TA.AperFunction,ComponentPad*
%ADD11RoundRect,0.500000X0.000000X0.600000X0.000000X0.600000X0.000000X-0.600000X0.000000X-0.600000X0*%
G04 #@! TD*
G04 #@! TA.AperFunction,ComponentPad*
%ADD12RoundRect,0.500000X0.000000X0.300000X0.000000X0.300000X0.000000X-0.300000X0.000000X-0.300000X0*%
G04 #@! TD*
G04 #@! TA.AperFunction,SMDPad,CuDef*
%ADD13R,2.000000X1.200000*%
G04 #@! TD*
G04 #@! TA.AperFunction,SMDPad,CuDef*
%ADD14R,1.200000X2.000000*%
G04 #@! TD*
G04 #@! TA.AperFunction,ViaPad*
%ADD15C,0.600000*%
G04 #@! TD*
G04 #@! TA.AperFunction,Conductor*
%ADD16C,0.600000*%
G04 #@! TD*
G04 #@! TA.AperFunction,Conductor*
%ADD17C,0.400000*%
G04 #@! TD*
G04 #@! TA.AperFunction,Conductor*
%ADD18C,0.200000*%
G04 #@! TD*
G04 #@! TA.AperFunction,Conductor*
%ADD19C,0.152400*%
G04 #@! TD*
G04 APERTURE END LIST*
D10*
X150300000Y-124900000D03*
X126100000Y-124900000D03*
X126100000Y-104100000D03*
D11*
X142520000Y-106580000D03*
D12*
X142520000Y-102400000D03*
D11*
X133880000Y-106580000D03*
D12*
X133880000Y-102400000D03*
D10*
X150300000Y-104100000D03*
D13*
X146200000Y-110900000D03*
X146200000Y-112900000D03*
X146200000Y-114900000D03*
X146200000Y-116900000D03*
X146200000Y-118900000D03*
X146200000Y-120900000D03*
X146200000Y-122900000D03*
X146200000Y-124900000D03*
D14*
X143200000Y-126380000D03*
X141200000Y-126380000D03*
X139200000Y-126380000D03*
X137200000Y-126380000D03*
X135200000Y-126380000D03*
X133200000Y-126380000D03*
D13*
X130200000Y-124900000D03*
X130200000Y-122900000D03*
X130200000Y-120900000D03*
X130200000Y-118900000D03*
X130200000Y-116900000D03*
X130200000Y-114900000D03*
X130200000Y-112900000D03*
X130200000Y-110900000D03*
D15*
X138100000Y-122950000D03*
X144300000Y-115800000D03*
X139900000Y-102500000D03*
X132850000Y-104900000D03*
X144050000Y-102850000D03*
X145900000Y-108800000D03*
X135750000Y-116160000D03*
X130726500Y-108200000D03*
X130655901Y-108975000D03*
X129523000Y-109700000D03*
X130000000Y-104650000D03*
X130377000Y-109700000D03*
X131900000Y-104650000D03*
X139250000Y-111175000D03*
X140100000Y-123300000D03*
X137800000Y-112625000D03*
X138525000Y-111900000D03*
X138525000Y-113350000D03*
X138525000Y-111175000D03*
X136950000Y-105100000D03*
X139250000Y-113350000D03*
X141650000Y-108350000D03*
X137800000Y-113375000D03*
X137800000Y-111925000D03*
X135000000Y-109000000D03*
X136700000Y-115850000D03*
X139250000Y-111900000D03*
X138525000Y-112625000D03*
X139250000Y-112625000D03*
X137800000Y-111175000D03*
X133150000Y-119500000D03*
X134150000Y-122850000D03*
X132100000Y-123850000D03*
X132400000Y-107150000D03*
X132750000Y-109900000D03*
X146800000Y-114950000D03*
X145000000Y-104050000D03*
X146800000Y-107500000D03*
X139900000Y-103750000D03*
X132750000Y-108950000D03*
X133300000Y-122000000D03*
X131700000Y-108000000D03*
X138950000Y-106300000D03*
X131900000Y-102050000D03*
X136600000Y-102473000D03*
X137944100Y-106300000D03*
X136600000Y-103327000D03*
X130000000Y-102050000D03*
X139700000Y-105300000D03*
X136925000Y-106175000D03*
D16*
X133600000Y-123900000D02*
X132000000Y-122300000D01*
X132000000Y-122300000D02*
X132000000Y-121450000D01*
X132000000Y-121450000D02*
X131450000Y-120900000D01*
X131450000Y-120900000D02*
X130200000Y-120900000D01*
X138100000Y-122950000D02*
X137150000Y-123900000D01*
X137150000Y-123900000D02*
X133600000Y-123900000D01*
D17*
X144700000Y-110900000D02*
X146200000Y-110900000D01*
X144250000Y-115750000D02*
X144250000Y-111350000D01*
X144300000Y-115800000D02*
X144250000Y-115750000D01*
X144250000Y-111350000D02*
X144700000Y-110900000D01*
D18*
X133100000Y-104650000D02*
X134900000Y-104650000D01*
D16*
X136300000Y-117400000D02*
X141800000Y-117400000D01*
X135750000Y-116850000D02*
X136300000Y-117400000D01*
D18*
X146050000Y-105725000D02*
X145825000Y-105500000D01*
D16*
X145000000Y-124900000D02*
X146200000Y-124900000D01*
X141800000Y-117400000D02*
X143200000Y-116000000D01*
X143200000Y-123100000D02*
X145000000Y-124900000D01*
D18*
X134900000Y-104650000D02*
X135696000Y-103854000D01*
D16*
X135750000Y-116160000D02*
X135750000Y-116850000D01*
D18*
X144050000Y-104900000D02*
X144050000Y-102850000D01*
X145900000Y-108800000D02*
X146050000Y-108650000D01*
D16*
X143200000Y-110000000D02*
X143200000Y-116000000D01*
D18*
X135696000Y-103854000D02*
X138546000Y-103854000D01*
D17*
X146200000Y-124900000D02*
X145350000Y-124900000D01*
D18*
X146050000Y-108650000D02*
X146050000Y-105725000D01*
D16*
X144400000Y-108800000D02*
X143200000Y-110000000D01*
D18*
X138546000Y-103854000D02*
X139900000Y-102500000D01*
D16*
X143200000Y-116000000D02*
X143200000Y-123100000D01*
D18*
X132850000Y-104900000D02*
X133100000Y-104650000D01*
X144650000Y-105500000D02*
X144050000Y-104900000D01*
D16*
X145900000Y-108800000D02*
X144400000Y-108800000D01*
D18*
X145825000Y-105500000D02*
X144650000Y-105500000D01*
X130726500Y-108200000D02*
X131277000Y-108750500D01*
X131277000Y-108750500D02*
X131277000Y-109827000D01*
X130550000Y-112900000D02*
X130200000Y-112900000D01*
X131277000Y-109827000D02*
X131550000Y-110100000D01*
X131550000Y-110100000D02*
X131550000Y-111900000D01*
X131550000Y-111900000D02*
X130550000Y-112900000D01*
X130904000Y-110196000D02*
X130200000Y-110900000D01*
X130655901Y-108975000D02*
X130904000Y-109223099D01*
X130904000Y-109223099D02*
X130904000Y-110196000D01*
D19*
X130746800Y-106065830D02*
X130746800Y-105396800D01*
X129523000Y-109790728D02*
X129746799Y-109566929D01*
X130746800Y-105396800D02*
X130000000Y-104650000D01*
X129746799Y-107065831D02*
X130746800Y-106065830D01*
X129746799Y-109566929D02*
X129746799Y-107065831D01*
X131153200Y-105396800D02*
X131900000Y-104650000D01*
X130153201Y-109566929D02*
X130153201Y-107234169D01*
X131153200Y-106234170D02*
X131153200Y-105396800D01*
X130153201Y-107234169D02*
X131153200Y-106234170D01*
X130377000Y-109790728D02*
X130153201Y-109566929D01*
D16*
X135700000Y-111175000D02*
X137800000Y-111175000D01*
X136700000Y-112175000D02*
X135700000Y-111175000D01*
X130200000Y-124900000D02*
X130300000Y-124800000D01*
X141650000Y-108350000D02*
X141650000Y-110700000D01*
D18*
X136950000Y-105100000D02*
X136150000Y-105900000D01*
D16*
X130300000Y-124800000D02*
X138600000Y-124800000D01*
X135000000Y-109000000D02*
X135000000Y-110475000D01*
X141175000Y-111175000D02*
X139250000Y-111175000D01*
X135000000Y-110475000D02*
X135700000Y-111175000D01*
D18*
X136150000Y-107850000D02*
X135000000Y-109000000D01*
D16*
X138600000Y-124800000D02*
X140100000Y-123300000D01*
D18*
X136150000Y-105900000D02*
X136150000Y-107850000D01*
D16*
X141650000Y-110700000D02*
X141175000Y-111175000D01*
X136700000Y-115850000D02*
X136700000Y-112175000D01*
D18*
X133200000Y-119500000D02*
X133150000Y-119500000D01*
X134150000Y-122850000D02*
X134150000Y-120450000D01*
X131150000Y-122900000D02*
X130200000Y-122900000D01*
X134150000Y-120450000D02*
X133200000Y-119500000D01*
X132100000Y-123850000D02*
X131150000Y-122900000D01*
X132150000Y-109300000D02*
X132150000Y-108400000D01*
X132750000Y-109900000D02*
X132150000Y-109300000D01*
X132400000Y-108150000D02*
X132400000Y-107150000D01*
X132150000Y-108400000D02*
X132400000Y-108150000D01*
X146200000Y-104050000D02*
X145000000Y-104050000D01*
X146800000Y-107450000D02*
X146800000Y-104650000D01*
D17*
X146150000Y-114950000D02*
X146200000Y-114900000D01*
X146200000Y-114900000D02*
X146200000Y-114950000D01*
D18*
X133545291Y-105200000D02*
X133100000Y-105645291D01*
X135200000Y-105200000D02*
X133545291Y-105200000D01*
X146800000Y-104650000D02*
X146200000Y-104050000D01*
X132750000Y-108550000D02*
X132750000Y-108950000D01*
X139900000Y-103750000D02*
X139250000Y-104400000D01*
X136000000Y-104400000D02*
X135200000Y-105200000D01*
X133100000Y-105645291D02*
X133100000Y-108200000D01*
D17*
X146200000Y-114950000D02*
X146150000Y-114950000D01*
D18*
X139250000Y-104400000D02*
X136000000Y-104400000D01*
X133100000Y-108200000D02*
X132750000Y-108550000D01*
X132000000Y-109925000D02*
X132000000Y-118150000D01*
D17*
X133300000Y-122000000D02*
X133300000Y-121100000D01*
D18*
X132000000Y-118150000D02*
X131250000Y-118900000D01*
D17*
X133300000Y-121100000D02*
X131100000Y-118900000D01*
D18*
X131700000Y-108000000D02*
X131700000Y-109625000D01*
D17*
X131100000Y-118900000D02*
X130200000Y-118900000D01*
X131000000Y-118600000D02*
X130500000Y-118600000D01*
D18*
X131250000Y-118900000D02*
X130200000Y-118900000D01*
X131700000Y-109625000D02*
X132000000Y-109925000D01*
D19*
X133584170Y-103696800D02*
X134515830Y-103696800D01*
X134515830Y-103696800D02*
X135515831Y-102696799D01*
D17*
X138950000Y-106300000D02*
X137944100Y-106300000D01*
D19*
X131900000Y-102050000D02*
X131153200Y-102796800D01*
X133084170Y-103196800D02*
X133584170Y-103696800D01*
X131153200Y-102965830D02*
X131384170Y-103196800D01*
X131384170Y-103196800D02*
X133084170Y-103196800D01*
X135515831Y-102696799D02*
X136376201Y-102696799D01*
X131153200Y-102796800D02*
X131153200Y-102965830D01*
X136376201Y-102696799D02*
X136600000Y-102473000D01*
X130746800Y-103134170D02*
X131215830Y-103603200D01*
X131215830Y-103603200D02*
X132915830Y-103603200D01*
X133415830Y-104103200D02*
X134684170Y-104103200D01*
X136376201Y-103103201D02*
X136600000Y-103327000D01*
X134684170Y-104103200D02*
X135684169Y-103103201D01*
X130000000Y-102050000D02*
X130746800Y-102796800D01*
X130746800Y-102796800D02*
X130746800Y-103134170D01*
X135684169Y-103103201D02*
X136376201Y-103103201D01*
X132915830Y-103603200D02*
X133415830Y-104103200D01*
D18*
X137800000Y-105300000D02*
X136925000Y-106175000D01*
X139700000Y-105300000D02*
X137800000Y-105300000D01*
G04 #@! TA.AperFunction,Conductor*
G36*
X142237549Y-108917137D02*
G01*
X142283257Y-108962558D01*
X142300000Y-109024783D01*
X142300000Y-115176777D01*
X142283517Y-115238552D01*
X142238450Y-115283903D01*
X142176780Y-115300774D01*
X141214029Y-115306830D01*
X134474780Y-115349215D01*
X134412451Y-115332863D01*
X134366743Y-115287442D01*
X134350000Y-115225217D01*
X134350000Y-109073223D01*
X134366483Y-109011448D01*
X134411550Y-108966097D01*
X134473219Y-108949225D01*
X135435969Y-108943170D01*
X142175220Y-108900785D01*
X142237549Y-108917137D01*
G37*
G04 #@! TD.AperFunction*
M02*
