M48
; DRILL file {KiCad 7.0.1-0} date 2024 January 29, Monday 00:45:16
; FORMAT={-:-/ absolute / metric / decimal}
; #@! TF.CreationDate,2024-01-29T00:45:16+01:00
; #@! TF.GenerationSoftware,Kicad,Pcbnew,7.0.1-0
; #@! TF.FileFunction,Plated,1,2,PTH
FMAT,2
METRIC
; #@! TA.AperFunction,Plated,PTH,ViaDrill
T1C0.300
; #@! TA.AperFunction,Plated,PTH,ComponentDrill
T2C0.600
; #@! TA.AperFunction,Plated,PTH,ComponentDrill
T3C3.200
%
G90
G05
T1
X129.523Y-109.7
X130.0Y-102.05
X130.0Y-104.65
X130.377Y-109.7
X130.656Y-108.975
X130.726Y-108.2
X131.7Y-108.0
X131.9Y-102.05
X131.9Y-104.65
X132.1Y-123.85
X132.4Y-107.15
X132.75Y-108.95
X132.75Y-109.9
X132.85Y-104.9
X133.15Y-119.5
X133.3Y-122.0
X134.15Y-122.85
X135.0Y-109.0
X135.75Y-116.16
X136.6Y-102.473
X136.6Y-103.327
X136.7Y-115.85
X136.925Y-106.175
X136.95Y-105.1
X137.8Y-111.175
X137.8Y-111.925
X137.8Y-112.625
X137.8Y-113.375
X137.944Y-106.3
X138.1Y-122.95
X138.525Y-111.175
X138.525Y-111.9
X138.525Y-112.625
X138.525Y-113.35
X138.95Y-106.3
X139.25Y-111.175
X139.25Y-111.9
X139.25Y-112.625
X139.25Y-113.35
X139.7Y-105.3
X139.9Y-102.5
X139.9Y-103.75
X140.1Y-123.3
X141.65Y-108.35
X144.05Y-102.85
X144.3Y-115.8
X145.0Y-104.05
X145.9Y-108.8
X146.8Y-107.5
X146.8Y-114.95
T3
X126.1Y-104.1
X126.1Y-124.9
X150.3Y-104.1
X150.3Y-124.9
T2
X133.88Y-102.7G85X133.88Y-102.1
G05
X133.88Y-107.13G85X133.88Y-106.03
G05
X142.52Y-102.7G85X142.52Y-102.1
G05
X142.52Y-107.13G85X142.52Y-106.03
G05
T0
M30
